<svg xmlns="http://www.w3.org/2000/svg" viewBox="0 0 512 512">
  <defs>
    <linearGradient id="grad" x1="0%" y1="0%" x2="100%" y2="100%">
      <stop offset="0%" style="stop-color:#6366f1;stop-opacity:1" />
      <stop offset="100%" style="stop-color:#a855f7;stop-opacity:1" />
    </linearGradient>
  </defs>
  <rect x="0" y="0" width="512" height="512" rx="128" fill="url(#grad)"/>
  <path fill="white" d="M256,112c-79.5,0-144,64.5-144,144s64.5,144,144,144s144-64.5,144-144S335.5,112,256,112z M256,368 c-61.9,0-112-50.1-112-112s50.1-112,112-112s112,50.1,112,112S317.9,368,256,368z"/>
  <path fill="white" d="M256,176c-44.2,0-80,35.8-80,80s35.8,80,80,80s80-35.8,80-80S300.2,176,256,176z M256,304 c-26.5,0-48-21.5-48-48s21.5-48,48-48s48,21.5,48,48S282.5,304,256,304z"/>
  <rect x="232" y="160" width="48" height="192" fill="white" rx="8" opacity="0.3"/>
  <rect x="160" y="232" width="192" height="48" fill="white" rx="8" opacity="0.3"/>
</svg>
